0
SECTION
2
HEADER
9
$INSUNITS
70
4
9
$ACADVER
1
AC1014
9
$HANDSEED
5
FFFF
0
ENDSEC
0
SECTION
2
TABLES
0
TABLE
2
VPORT
5
8
100
AcDbSymbolTable
0
ENDTAB
0
TABLE
2
LTYPE
5
5
100
AcDbSymbolTable
0
LTYPE
5
14
100
AcDbSymbolTableRecord
100
AcDbLinetypeTableRecord
2
BYBLOCK
70
0
0
LTYPE
5
15
100
AcDbSymbolTableRecord
100
AcDbLinetypeTableRecord
2
BYLAYER
70
0
0
LTYPE
5
16
100
AcDbSymbolTableRecord
100
AcDbLinetypeTableRecord
2
DASHED
70
0
3
Dashed __ __ __ __ __ __ __ __ __ __ __ __ __ _
72
65
73
2
40
0.75
49
0.5
74
0
49
-0.25
74
0
0
ENDTAB
0
TABLE
2
LAYER
5
2
100
AcDbSymbolTable
70
2
0
LAYER
5
50
100
AcDbSymbolTableRecord
100
AcDbLayerTableRecord
2
0
70
0
62
7
6
CONTINUOUS
0
ENDTAB
0
TABLE
2
STYLE
5
3
100
AcDbSymbolTable
70
1
0
STYLE
5
11
100
AcDbSymbolTableRecord
100
AcDbTextStyleTableRecord
2
STANDARD
70
0
0
ENDTAB
0
TABLE
2
VIEW
5
6
100
AcDbSymbolTable
70
0
0
ENDTAB
0
TABLE
2
UCS
5
7
100
AcDbSymbolTable
70
0
0
ENDTAB
0
TABLE
2
APPID
5
9
100
AcDbSymbolTable
70
2
0
APPID
5
12
100
AcDbSymbolTableRecord
100
AcDbRegAppTableRecord
2
ACAD
70
0
0
ENDTAB
0
TABLE
2
DIMSTYLE
5
A
100
AcDbSymbolTable
70
1
0
ENDTAB
0
TABLE
2
BLOCK_RECORD
5
1
100
AcDbSymbolTable
70
1
0
BLOCK_RECORD
5
1F
100
AcDbSymbolTableRecord
100
AcDbBlockTableRecord
2
*MODEL_SPACE
0
BLOCK_RECORD
5
1B
100
AcDbSymbolTableRecord
100
AcDbBlockTableRecord
2
*PAPER_SPACE
0
ENDTAB
0
ENDSEC
0
SECTION
2
BLOCKS
0
BLOCK
5
20
100
AcDbEntity
100
AcDbBlockBegin
2
*MODEL_SPACE
0
ENDBLK
5
21
100
AcDbEntity
100
AcDbBlockEnd
0
BLOCK
5
1C
100
AcDbEntity
100
AcDbBlockBegin
2
*PAPER_SPACE
0
ENDBLK
5
1D
100
AcDbEntity
100
AcDbBlockEnd
0
ENDSEC
0
SECTION
2
ENTITIES
0
LWPOLYLINE
5
100
100
AcDbEntity
8
0
100
AcDbPolyline
90
20
70
1
43
0.0
10
324.97679149823483
20
375.00304519666537
10
374.98651620506047
20
375.00304519666537
10
374.98651620506047
20
324.98460078192829
10
400
20
299.96675562979624
10
400
20
99.953972051946238
10
375
20
75
10
375
20
25
10
325
20
25
10
300.02859994887962
20
0
10
99.994520079072942
20
0
10
75
20
25
10
25
20
25
10
25
20
75
10
0
20
100.01195514821106
10
0
20
299.99986564476495
10
25
20
325
10
25
20
375
10
75
20
375
10
100.01757040327975
20
400
10
299.98419441028113
20
400
0
CIRCLE
5
101
100
AcDbEntity
8
0
100
AcDbCircle
10
50
20
50
30
0
40
6.2500000000000036
210
0
220
0
230
1
0
CIRCLE
5
102
100
AcDbEntity
8
0
100
AcDbCircle
10
350
20
50
30
0
40
6.2500000000000036
210
0
220
0
230
1
0
CIRCLE
5
103
100
AcDbEntity
8
0
100
AcDbCircle
10
350
20
350
30
0
40
6.2499999999999947
210
0
220
0
230
1
0
CIRCLE
5
104
100
AcDbEntity
8
0
100
AcDbCircle
10
50
20
350
30
0
40
6.25
210
0
220
0
230
1
0
LWPOLYLINE
5
105
100
AcDbEntity
8
0
100
AcDbPolyline
90
20
70
1
43
0.0
10
819.93167858275797
20
99.972897669735147
10
795
20
75.02929661047267
10
795
20
25
10
745
20
25
10
720.00547992092709
20
0
10
519.97140005112044
20
0
10
495
20
25
10
445
20
25
10
445
20
75
10
420
20
99.953972051946238
10
420
20
299.96675562979624
10
445.01348379493953
20
324.98460078192829
10
445.01348379493953
20
375.00304519666537
10
495.02320850176517
20
375.00304519666537
10
520.01580558971887
20
400
10
719.98242959672029
20
400
10
745
20
375
10
797.0768439935091
20
375
10
797.0768439935091
20
322.70532056239915
10
819.93167858275797
20
299.85036314648312
0
CIRCLE
5
106
100
AcDbEntity
8
0
100
AcDbCircle
10
470
20
350
30
0
40
6.2499999999999947
210
0
220
0
230
1
0
CIRCLE
5
107
100
AcDbEntity
8
0
100
AcDbCircle
10
770
20
350
30
0
40
6.25
210
0
220
0
230
1
0
CIRCLE
5
108
100
AcDbEntity
8
0
100
AcDbCircle
10
470
20
50
30
0
40
6.2500000000000036
210
0
220
0
230
1
0
CIRCLE
5
109
100
AcDbEntity
8
0
100
AcDbCircle
10
770
20
50
30
0
40
6.2500000000000036
210
0
220
0
230
1
0
LWPOLYLINE
5
110
100
AcDbEntity
8
0
100
AcDbPolyline
90
8
70
1
43
0.0
10
835.69444398814289
20
242.98995656819315
10
980.59809787616268
20
18.139593421710032
10
1080.6261225709009
20
18.139593421710032
10
1235.6261225709009
20
243.10634905150624
10
1193.7404991046897
20
243.10634905150624
10
1065.6261225709018
20
53.139593421710103
10
995.62612257090086
20
53.139593421710032
10
873.27803770714183
20
242.98995656819315
0
CIRCLE
5
111
100
AcDbEntity
8
0
100
AcDbCircle
10
1030.6191163972164
20
35.639593421710046
30
0
40
6.2500000000000036
210
0
220
0
230
1
0
LWPOLYLINE
5
112
100
AcDbEntity
8
0
100
AcDbPolyline
90
8
70
1
43
0.0
10
1013.1126093858954
20
97.951610561296889
10
1158.0162632739148
20
322.8019737077795
10
1258.0442879686527
20
322.8019737077795
10
1413.044287968652
20
97.835218077983868
10
1371.1586645024411
20
97.835218077983868
10
1243.0442879686536
20
287.8019737077795
10
1173.0442879686527
20
287.80197370777955
10
1050.696203104894
20
97.951610561296889
0
CIRCLE
5
113
100
AcDbEntity
8
0
100
AcDbCircle
10
1208.0372817949685
20
305.30197370777955
30
0
40
6.2500000000000036
210
0
220
0
230
1
0
ENDSEC
0
SECTION
2
OBJECTS
0
DICTIONARY
5
C
100
AcDbDictionary
3
ACAD_GROUP
350
D
3
ACAD_MLINESTYLE
350
17
0
DICTIONARY
5
D
100
AcDbDictionary
0
DICTIONARY
5
1A
330
C
100
AcDbDictionary
0
DICTIONARY
5
17
100
AcDbDictionary
0
ENDSEC
0
EOF
